<mxfile host="Electron" agent="Mozilla/5.0 (Windows NT 10.0; Win64; x64) AppleWebKit/537.36 (KHTML, like Gecko) draw.io/24.7.8 Chrome/128.0.6613.36 Electron/32.0.1 Safari/537.36" version="24.7.8">
  <diagram name="Page-1" id="KvyPbafw9UKkZqKxKkI1">
    <mxGraphModel dx="3427" dy="1010" grid="1" gridSize="10" guides="1" tooltips="1" connect="1" arrows="1" fold="1" page="1" pageScale="1" pageWidth="850" pageHeight="1100" math="0" shadow="0">
      <root>
        <mxCell id="0" />
        <mxCell id="1" parent="0" />
        <mxCell id="LbsSzFlzy3yXFulu0Od3-5" value="" style="edgeStyle=orthogonalEdgeStyle;rounded=0;orthogonalLoop=1;jettySize=auto;html=1;" parent="1" source="LbsSzFlzy3yXFulu0Od3-1" target="LbsSzFlzy3yXFulu0Od3-2" edge="1">
          <mxGeometry relative="1" as="geometry">
            <Array as="points">
              <mxPoint x="-760" y="140" />
              <mxPoint x="-760" y="140" />
            </Array>
          </mxGeometry>
        </mxCell>
        <mxCell id="LbsSzFlzy3yXFulu0Od3-1" value="&lt;b&gt;&lt;font face=&quot;Times New Roman&quot; style=&quot;font-size: 17px;&quot;&gt;star&lt;/font&gt;&lt;/b&gt;" style="strokeWidth=2;html=1;shape=mxgraph.flowchart.start_1;whiteSpace=wrap;" parent="1" vertex="1">
          <mxGeometry x="-810" y="50" width="100" height="60" as="geometry" />
        </mxCell>
        <mxCell id="LbsSzFlzy3yXFulu0Od3-10" value="" style="edgeStyle=orthogonalEdgeStyle;rounded=0;orthogonalLoop=1;jettySize=auto;html=1;" parent="1" source="LbsSzFlzy3yXFulu0Od3-2" target="LbsSzFlzy3yXFulu0Od3-9" edge="1">
          <mxGeometry relative="1" as="geometry" />
        </mxCell>
        <mxCell id="LbsSzFlzy3yXFulu0Od3-2" value="&lt;div style=&quot;line-height: 19px; white-space: pre; font-size: 11px;&quot;&gt;&lt;div style=&quot;&quot;&gt;&lt;div style=&quot;&quot;&gt;&lt;font face=&quot;Times New Roman&quot; style=&quot;font-size: 11px;&quot; color=&quot;#330000&quot;&gt;        output      &lt;/font&gt;&lt;/div&gt;&lt;div style=&quot;&quot;&gt;&lt;font face=&quot;rwcmR4gtEUjeIfdyCR9C&quot; style=&quot;font-size: 11px;&quot; color=&quot;#330000&quot;&gt;&lt;b style=&quot;&quot;&gt;Sistem Penjualan Novel :&lt;/b&gt; &lt;/font&gt;&lt;/div&gt;&lt;div style=&quot;&quot;&gt;&lt;font face=&quot;rwcmR4gtEUjeIfdyCR9C&quot; style=&quot;font-size: 11px;&quot; color=&quot;#330000&quot;&gt;&amp;nbsp; &amp;nbsp; &amp;nbsp; &amp;nbsp; 1. Lihat Novel&lt;/font&gt;&lt;/div&gt;&lt;div style=&quot;&quot;&gt;&lt;font face=&quot;rwcmR4gtEUjeIfdyCR9C&quot; style=&quot;font-size: 11px;&quot; color=&quot;#330000&quot;&gt;&amp;nbsp; &amp;nbsp; &amp;nbsp; &amp;nbsp; 2. Tambah Novel&lt;/font&gt;&lt;/div&gt;&lt;div style=&quot;&quot;&gt;&lt;font face=&quot;rwcmR4gtEUjeIfdyCR9C&quot; style=&quot;font-size: 11px;&quot; color=&quot;#330000&quot;&gt;&amp;nbsp; &amp;nbsp; &amp;nbsp; &amp;nbsp; 3. Ganti Harga Novel&lt;/font&gt;&lt;/div&gt;&lt;div style=&quot;&quot;&gt;&lt;font face=&quot;rwcmR4gtEUjeIfdyCR9C&quot; style=&quot;font-size: 11px;&quot; color=&quot;#330000&quot;&gt;&amp;nbsp; &amp;nbsp; &amp;nbsp; &amp;nbsp; 4. Hapus Novel&lt;/font&gt;&lt;/div&gt;&lt;div style=&quot;&quot;&gt;&lt;font face=&quot;rwcmR4gtEUjeIfdyCR9C&quot; style=&quot;font-size: 11px;&quot; color=&quot;#330000&quot;&gt;&amp;nbsp; &amp;nbsp; &amp;nbsp; &amp;nbsp; 5. Keluar&lt;/font&gt;&lt;/div&gt;&lt;/div&gt;&lt;/div&gt;" style="shape=parallelogram;perimeter=parallelogramPerimeter;whiteSpace=wrap;html=1;fixedSize=1;strokeWidth=2;align=center;labelBackgroundColor=none;" parent="1" vertex="1">
          <mxGeometry x="-880" y="140" width="230" height="130" as="geometry" />
        </mxCell>
        <mxCell id="LbsSzFlzy3yXFulu0Od3-4" style="edgeStyle=orthogonalEdgeStyle;rounded=0;orthogonalLoop=1;jettySize=auto;html=1;exitX=0.5;exitY=1;exitDx=0;exitDy=0;exitPerimeter=0;" parent="1" source="LbsSzFlzy3yXFulu0Od3-1" target="LbsSzFlzy3yXFulu0Od3-1" edge="1">
          <mxGeometry relative="1" as="geometry" />
        </mxCell>
        <mxCell id="LbsSzFlzy3yXFulu0Od3-15" value="" style="edgeStyle=orthogonalEdgeStyle;rounded=0;orthogonalLoop=1;jettySize=auto;html=1;" parent="1" source="LbsSzFlzy3yXFulu0Od3-9" target="LbsSzFlzy3yXFulu0Od3-14" edge="1">
          <mxGeometry relative="1" as="geometry" />
        </mxCell>
        <mxCell id="LbsSzFlzy3yXFulu0Od3-17" value="" style="edgeStyle=orthogonalEdgeStyle;rounded=0;orthogonalLoop=1;jettySize=auto;html=1;" parent="1" source="LbsSzFlzy3yXFulu0Od3-9" target="LbsSzFlzy3yXFulu0Od3-16" edge="1">
          <mxGeometry relative="1" as="geometry" />
        </mxCell>
        <mxCell id="LbsSzFlzy3yXFulu0Od3-19" value="" style="edgeStyle=orthogonalEdgeStyle;rounded=0;orthogonalLoop=1;jettySize=auto;html=1;" parent="1" source="LbsSzFlzy3yXFulu0Od3-9" target="LbsSzFlzy3yXFulu0Od3-18" edge="1">
          <mxGeometry relative="1" as="geometry" />
        </mxCell>
        <mxCell id="LbsSzFlzy3yXFulu0Od3-23" value="" style="edgeStyle=orthogonalEdgeStyle;rounded=0;orthogonalLoop=1;jettySize=auto;html=1;" parent="1" source="LbsSzFlzy3yXFulu0Od3-9" target="LbsSzFlzy3yXFulu0Od3-22" edge="1">
          <mxGeometry relative="1" as="geometry" />
        </mxCell>
        <mxCell id="LbsSzFlzy3yXFulu0Od3-9" value="&lt;font face=&quot;Times New Roman&quot;&gt;Input masukkan&amp;nbsp;&lt;/font&gt;&lt;div&gt;&lt;font face=&quot;Times New Roman&quot;&gt;pilihan menu&lt;/font&gt;&lt;/div&gt;" style="shape=parallelogram;perimeter=parallelogramPerimeter;whiteSpace=wrap;html=1;fixedSize=1;strokeWidth=2;labelBackgroundColor=none;" parent="1" vertex="1">
          <mxGeometry x="-825" y="300" width="120" height="60" as="geometry" />
        </mxCell>
        <mxCell id="LbsSzFlzy3yXFulu0Od3-25" value="" style="edgeStyle=orthogonalEdgeStyle;rounded=0;orthogonalLoop=1;jettySize=auto;html=1;" parent="1" source="LbsSzFlzy3yXFulu0Od3-14" target="LbsSzFlzy3yXFulu0Od3-24" edge="1">
          <mxGeometry relative="1" as="geometry" />
        </mxCell>
        <mxCell id="LbsSzFlzy3yXFulu0Od3-14" value="&lt;b&gt;&lt;font face=&quot;Times New Roman&quot;&gt;Pilih = 1&lt;/font&gt;&lt;/b&gt;" style="whiteSpace=wrap;html=1;strokeWidth=2;labelBackgroundColor=none;" parent="1" vertex="1">
          <mxGeometry x="-1150" y="420" width="120" height="60" as="geometry" />
        </mxCell>
        <mxCell id="p9JWeUzQHKc_CHP3LSrr-10" value="" style="edgeStyle=orthogonalEdgeStyle;rounded=0;orthogonalLoop=1;jettySize=auto;html=1;" edge="1" parent="1" source="LbsSzFlzy3yXFulu0Od3-16" target="p9JWeUzQHKc_CHP3LSrr-9">
          <mxGeometry relative="1" as="geometry" />
        </mxCell>
        <mxCell id="LbsSzFlzy3yXFulu0Od3-16" value="&lt;b&gt;Pilih = 2&lt;/b&gt;" style="whiteSpace=wrap;html=1;strokeWidth=2;labelBackgroundColor=none;" parent="1" vertex="1">
          <mxGeometry x="-970" y="420" width="120" height="60" as="geometry" />
        </mxCell>
        <mxCell id="p9JWeUzQHKc_CHP3LSrr-49" value="" style="edgeStyle=orthogonalEdgeStyle;rounded=0;orthogonalLoop=1;jettySize=auto;html=1;" edge="1" parent="1" source="LbsSzFlzy3yXFulu0Od3-18" target="p9JWeUzQHKc_CHP3LSrr-48">
          <mxGeometry relative="1" as="geometry" />
        </mxCell>
        <mxCell id="LbsSzFlzy3yXFulu0Od3-18" value="&lt;b&gt;Pilih = 4&lt;/b&gt;" style="whiteSpace=wrap;html=1;strokeWidth=2;labelBackgroundColor=none;" parent="1" vertex="1">
          <mxGeometry x="-670" y="420" width="120" height="60" as="geometry" />
        </mxCell>
        <mxCell id="p9JWeUzQHKc_CHP3LSrr-58" value="" style="edgeStyle=orthogonalEdgeStyle;rounded=0;orthogonalLoop=1;jettySize=auto;html=1;" edge="1" parent="1" source="LbsSzFlzy3yXFulu0Od3-20" target="p9JWeUzQHKc_CHP3LSrr-57">
          <mxGeometry relative="1" as="geometry" />
        </mxCell>
        <mxCell id="LbsSzFlzy3yXFulu0Od3-20" value="&lt;b&gt;Pilih = 5&lt;/b&gt;" style="whiteSpace=wrap;html=1;strokeWidth=2;labelBackgroundColor=none;" parent="1" vertex="1">
          <mxGeometry x="-480" y="420" width="120" height="60" as="geometry" />
        </mxCell>
        <mxCell id="LbsSzFlzy3yXFulu0Od3-21" value="" style="edgeStyle=orthogonalEdgeStyle;rounded=0;orthogonalLoop=1;jettySize=auto;html=1;entryX=0.5;entryY=0;entryDx=0;entryDy=0;" parent="1" target="LbsSzFlzy3yXFulu0Od3-20" edge="1">
          <mxGeometry relative="1" as="geometry">
            <mxPoint x="-610" y="330" as="sourcePoint" />
            <mxPoint x="-415" y="410" as="targetPoint" />
          </mxGeometry>
        </mxCell>
        <mxCell id="p9JWeUzQHKc_CHP3LSrr-36" value="" style="edgeStyle=orthogonalEdgeStyle;rounded=0;orthogonalLoop=1;jettySize=auto;html=1;" edge="1" parent="1" source="LbsSzFlzy3yXFulu0Od3-22" target="p9JWeUzQHKc_CHP3LSrr-35">
          <mxGeometry relative="1" as="geometry" />
        </mxCell>
        <mxCell id="LbsSzFlzy3yXFulu0Od3-22" value="&lt;b&gt;Pilih = 3&lt;/b&gt;" style="whiteSpace=wrap;html=1;strokeWidth=2;labelBackgroundColor=none;" parent="1" vertex="1">
          <mxGeometry x="-825" y="420" width="120" height="60" as="geometry" />
        </mxCell>
        <mxCell id="p9JWeUzQHKc_CHP3LSrr-2" value="" style="edgeStyle=orthogonalEdgeStyle;rounded=0;orthogonalLoop=1;jettySize=auto;html=1;" edge="1" parent="1" source="LbsSzFlzy3yXFulu0Od3-24" target="p9JWeUzQHKc_CHP3LSrr-1">
          <mxGeometry relative="1" as="geometry" />
        </mxCell>
        <mxCell id="LbsSzFlzy3yXFulu0Od3-24" value="&lt;div&gt;&lt;font face=&quot;Times New Roman&quot;&gt;Output&lt;/font&gt;&lt;/div&gt;&lt;font face=&quot;Times New Roman&quot;&gt;Lihat daftar Novel&amp;nbsp;&lt;/font&gt;" style="shape=parallelogram;perimeter=parallelogramPerimeter;whiteSpace=wrap;html=1;fixedSize=1;strokeWidth=2;labelBackgroundColor=none;" parent="1" vertex="1">
          <mxGeometry x="-1155" y="530" width="130" height="80" as="geometry" />
        </mxCell>
        <mxCell id="p9JWeUzQHKc_CHP3LSrr-4" value="" style="edgeStyle=orthogonalEdgeStyle;rounded=0;orthogonalLoop=1;jettySize=auto;html=1;" edge="1" parent="1" source="p9JWeUzQHKc_CHP3LSrr-1" target="LbsSzFlzy3yXFulu0Od3-2">
          <mxGeometry relative="1" as="geometry">
            <mxPoint x="-1300" y="170" as="targetPoint" />
            <Array as="points">
              <mxPoint x="-1230" y="700" />
              <mxPoint x="-1230" y="205" />
            </Array>
          </mxGeometry>
        </mxCell>
        <mxCell id="p9JWeUzQHKc_CHP3LSrr-1" value="&lt;font face=&quot;Times New Roman&quot;&gt;Input&amp;nbsp;&lt;/font&gt;&lt;div&gt;&lt;font face=&quot;Times New Roman&quot;&gt;Enter untuk kembali&amp;nbsp;&lt;/font&gt;&lt;/div&gt;&lt;div&gt;&lt;font face=&quot;Times New Roman&quot;&gt;memilih menu lagi&lt;/font&gt;&lt;/div&gt;" style="shape=parallelogram;perimeter=parallelogramPerimeter;whiteSpace=wrap;html=1;fixedSize=1;strokeWidth=2;labelBackgroundColor=none;" vertex="1" parent="1">
          <mxGeometry x="-1155" y="660" width="130" height="80" as="geometry" />
        </mxCell>
        <mxCell id="p9JWeUzQHKc_CHP3LSrr-12" value="" style="edgeStyle=orthogonalEdgeStyle;rounded=0;orthogonalLoop=1;jettySize=auto;html=1;" edge="1" parent="1" source="p9JWeUzQHKc_CHP3LSrr-9">
          <mxGeometry relative="1" as="geometry">
            <mxPoint x="-910" y="659.9999999999998" as="targetPoint" />
          </mxGeometry>
        </mxCell>
        <mxCell id="p9JWeUzQHKc_CHP3LSrr-9" value="&lt;font face=&quot;Times New Roman&quot;&gt;Input&amp;nbsp;&lt;/font&gt;&lt;div&gt;&lt;font face=&quot;Cc28dc-XnCbBv6BBPfGU&quot;&gt;Judul, Author, Harga,&amp;nbsp;&lt;/font&gt;&lt;/div&gt;&lt;div&gt;&lt;font face=&quot;Cc28dc-XnCbBv6BBPfGU&quot;&gt;Tahun terbit novel&amp;nbsp;&amp;nbsp;&lt;/font&gt;&lt;/div&gt;&lt;div&gt;&lt;font face=&quot;Cc28dc-XnCbBv6BBPfGU&quot;&gt;yang mau di tambah&lt;/font&gt;&lt;/div&gt;" style="shape=parallelogram;perimeter=parallelogramPerimeter;whiteSpace=wrap;html=1;fixedSize=1;strokeWidth=2;labelBackgroundColor=none;" vertex="1" parent="1">
          <mxGeometry x="-980" y="530" width="140" height="80" as="geometry" />
        </mxCell>
        <mxCell id="p9JWeUzQHKc_CHP3LSrr-14" value="" style="edgeStyle=orthogonalEdgeStyle;rounded=0;orthogonalLoop=1;jettySize=auto;html=1;" edge="1" parent="1">
          <mxGeometry relative="1" as="geometry">
            <mxPoint x="-910" y="739.9999999999998" as="sourcePoint" />
            <mxPoint x="-910" y="789.9999999999998" as="targetPoint" />
          </mxGeometry>
        </mxCell>
        <mxCell id="p9JWeUzQHKc_CHP3LSrr-31" value="" style="edgeStyle=orthogonalEdgeStyle;rounded=0;orthogonalLoop=1;jettySize=auto;html=1;" edge="1" parent="1" source="p9JWeUzQHKc_CHP3LSrr-21">
          <mxGeometry relative="1" as="geometry">
            <mxPoint x="-1230" y="700" as="targetPoint" />
          </mxGeometry>
        </mxCell>
        <mxCell id="p9JWeUzQHKc_CHP3LSrr-32" value="&lt;font face=&quot;Times New Roman&quot;&gt;Output&lt;/font&gt;&lt;div&gt;&lt;font face=&quot;Times New Roman&quot;&gt;Novel berhasil&amp;nbsp;&lt;/font&gt;&lt;/div&gt;&lt;div&gt;&lt;font face=&quot;Times New Roman&quot;&gt;di tambah&amp;nbsp;&lt;/font&gt;&lt;/div&gt;" style="shape=parallelogram;perimeter=parallelogramPerimeter;whiteSpace=wrap;html=1;fixedSize=1;strokeWidth=2;labelBackgroundColor=none;" vertex="1" parent="1">
          <mxGeometry x="-980" y="660" width="140" height="80" as="geometry" />
        </mxCell>
        <mxCell id="p9JWeUzQHKc_CHP3LSrr-39" value="" style="edgeStyle=orthogonalEdgeStyle;rounded=0;orthogonalLoop=1;jettySize=auto;html=1;" edge="1" parent="1" source="p9JWeUzQHKc_CHP3LSrr-35" target="p9JWeUzQHKc_CHP3LSrr-38">
          <mxGeometry relative="1" as="geometry" />
        </mxCell>
        <mxCell id="p9JWeUzQHKc_CHP3LSrr-35" value="&lt;font face=&quot;Times New Roman&quot;&gt;Input&amp;nbsp;&lt;/font&gt;&lt;div&gt;&lt;font face=&quot;gYelMpa9JVKCbf4nxSR1&quot;&gt;Harga novel yang&amp;nbsp;&lt;/font&gt;&lt;/div&gt;&lt;div&gt;&lt;font face=&quot;gYelMpa9JVKCbf4nxSR1&quot;&gt;mau diganti&lt;/font&gt;&lt;/div&gt;" style="shape=parallelogram;perimeter=parallelogramPerimeter;whiteSpace=wrap;html=1;fixedSize=1;strokeWidth=2;labelBackgroundColor=none;" vertex="1" parent="1">
          <mxGeometry x="-825" y="530" width="120" height="60" as="geometry" />
        </mxCell>
        <mxCell id="p9JWeUzQHKc_CHP3LSrr-21" value="&lt;font face=&quot;Times New Roman&quot;&gt;Input&amp;nbsp;&lt;/font&gt;&lt;div&gt;&lt;font face=&quot;Times New Roman&quot;&gt;Enter untuk kembali&amp;nbsp;&lt;/font&gt;&lt;/div&gt;&lt;div&gt;&lt;font face=&quot;Times New Roman&quot;&gt;memilih menu lagi&lt;/font&gt;&lt;/div&gt;" style="shape=parallelogram;perimeter=parallelogramPerimeter;whiteSpace=wrap;html=1;fixedSize=1;strokeWidth=2;labelBackgroundColor=none;" vertex="1" parent="1">
          <mxGeometry x="-980" y="790" width="130" height="80" as="geometry" />
        </mxCell>
        <mxCell id="p9JWeUzQHKc_CHP3LSrr-42" value="" style="edgeStyle=orthogonalEdgeStyle;rounded=0;orthogonalLoop=1;jettySize=auto;html=1;" edge="1" parent="1" source="p9JWeUzQHKc_CHP3LSrr-38" target="p9JWeUzQHKc_CHP3LSrr-40">
          <mxGeometry relative="1" as="geometry" />
        </mxCell>
        <mxCell id="p9JWeUzQHKc_CHP3LSrr-38" value="&lt;font face=&quot;Times New Roman&quot;&gt;Output&lt;/font&gt;&lt;br&gt;&lt;div&gt;&lt;font face=&quot;gYelMpa9JVKCbf4nxSR1&quot;&gt;Harga novel berhasil&amp;nbsp;&lt;/font&gt;&lt;span style=&quot;font-family: gYelMpa9JVKCbf4nxSR1; background-color: initial;&quot;&gt;diganti&lt;/span&gt;&lt;/div&gt;" style="shape=parallelogram;perimeter=parallelogramPerimeter;whiteSpace=wrap;html=1;fixedSize=1;strokeWidth=2;labelBackgroundColor=none;" vertex="1" parent="1">
          <mxGeometry x="-825" y="650" width="120" height="60" as="geometry" />
        </mxCell>
        <mxCell id="p9JWeUzQHKc_CHP3LSrr-46" value="" style="edgeStyle=orthogonalEdgeStyle;rounded=0;orthogonalLoop=1;jettySize=auto;html=1;" edge="1" parent="1" source="p9JWeUzQHKc_CHP3LSrr-40">
          <mxGeometry relative="1" as="geometry">
            <mxPoint x="-1230" y="830" as="targetPoint" />
            <Array as="points">
              <mxPoint x="-765" y="910" />
              <mxPoint x="-1230" y="910" />
            </Array>
          </mxGeometry>
        </mxCell>
        <mxCell id="p9JWeUzQHKc_CHP3LSrr-40" value="&lt;font face=&quot;Times New Roman&quot;&gt;Input&amp;nbsp;&lt;/font&gt;&lt;div&gt;&lt;font face=&quot;Times New Roman&quot;&gt;Enter untuk kembali&amp;nbsp;&lt;/font&gt;&lt;/div&gt;&lt;div&gt;&lt;font face=&quot;Times New Roman&quot;&gt;memilih menu lagi&lt;/font&gt;&lt;/div&gt;" style="shape=parallelogram;perimeter=parallelogramPerimeter;whiteSpace=wrap;html=1;fixedSize=1;strokeWidth=2;labelBackgroundColor=none;" vertex="1" parent="1">
          <mxGeometry x="-830" y="760" width="130" height="80" as="geometry" />
        </mxCell>
        <mxCell id="p9JWeUzQHKc_CHP3LSrr-51" value="" style="edgeStyle=orthogonalEdgeStyle;rounded=0;orthogonalLoop=1;jettySize=auto;html=1;" edge="1" parent="1" source="p9JWeUzQHKc_CHP3LSrr-48" target="p9JWeUzQHKc_CHP3LSrr-50">
          <mxGeometry relative="1" as="geometry" />
        </mxCell>
        <mxCell id="p9JWeUzQHKc_CHP3LSrr-48" value="&lt;font face=&quot;Times New Roman&quot;&gt;Input&amp;nbsp;&lt;/font&gt;&lt;div&gt;&lt;font face=&quot;a4l-twdvR4M4PE_KODEs&quot;&gt;Novel yang&amp;nbsp;&lt;/font&gt;&lt;/div&gt;&lt;div&gt;&lt;font face=&quot;a4l-twdvR4M4PE_KODEs&quot;&gt;mau&amp;nbsp;&lt;span style=&quot;background-color: initial;&quot;&gt;dihapus&lt;/span&gt;&lt;/font&gt;&lt;/div&gt;" style="shape=parallelogram;perimeter=parallelogramPerimeter;whiteSpace=wrap;html=1;fixedSize=1;strokeWidth=2;labelBackgroundColor=none;" vertex="1" parent="1">
          <mxGeometry x="-670" y="530" width="120" height="60" as="geometry" />
        </mxCell>
        <mxCell id="p9JWeUzQHKc_CHP3LSrr-53" value="" style="edgeStyle=orthogonalEdgeStyle;rounded=0;orthogonalLoop=1;jettySize=auto;html=1;" edge="1" parent="1" source="p9JWeUzQHKc_CHP3LSrr-50" target="p9JWeUzQHKc_CHP3LSrr-52">
          <mxGeometry relative="1" as="geometry" />
        </mxCell>
        <mxCell id="p9JWeUzQHKc_CHP3LSrr-50" value="&lt;font face=&quot;Times New Roman&quot;&gt;Output&lt;/font&gt;&lt;br&gt;&lt;div&gt;&lt;font face=&quot;a4l-twdvR4M4PE_KODEs&quot;&gt;Novel berhasil&amp;nbsp;&lt;/font&gt;&lt;/div&gt;&lt;div&gt;&lt;span style=&quot;background-color: initial; font-family: a4l-twdvR4M4PE_KODEs;&quot;&gt;dihapus&lt;/span&gt;&lt;/div&gt;" style="shape=parallelogram;perimeter=parallelogramPerimeter;whiteSpace=wrap;html=1;fixedSize=1;strokeWidth=2;labelBackgroundColor=none;" vertex="1" parent="1">
          <mxGeometry x="-670" y="650" width="120" height="60" as="geometry" />
        </mxCell>
        <mxCell id="p9JWeUzQHKc_CHP3LSrr-55" value="" style="edgeStyle=orthogonalEdgeStyle;rounded=0;orthogonalLoop=1;jettySize=auto;html=1;exitX=0.5;exitY=1;exitDx=0;exitDy=0;" edge="1" parent="1" source="p9JWeUzQHKc_CHP3LSrr-52">
          <mxGeometry relative="1" as="geometry">
            <mxPoint x="-600" y="860" as="sourcePoint" />
            <mxPoint x="-770" y="910" as="targetPoint" />
            <Array as="points">
              <mxPoint x="-610" y="910" />
              <mxPoint x="-760" y="910" />
            </Array>
          </mxGeometry>
        </mxCell>
        <mxCell id="p9JWeUzQHKc_CHP3LSrr-52" value="&lt;font face=&quot;Times New Roman&quot;&gt;Input&amp;nbsp;&lt;/font&gt;&lt;div&gt;&lt;font face=&quot;Times New Roman&quot;&gt;Enter untuk kembali&amp;nbsp;&lt;/font&gt;&lt;/div&gt;&lt;div&gt;&lt;font face=&quot;Times New Roman&quot;&gt;memilih menu lagi&lt;/font&gt;&lt;/div&gt;" style="shape=parallelogram;perimeter=parallelogramPerimeter;whiteSpace=wrap;html=1;fixedSize=1;strokeWidth=2;labelBackgroundColor=none;" vertex="1" parent="1">
          <mxGeometry x="-675" y="750" width="130" height="80" as="geometry" />
        </mxCell>
        <mxCell id="p9JWeUzQHKc_CHP3LSrr-57" value="&lt;font face=&quot;Times New Roman&quot;&gt;Output&lt;/font&gt;&lt;div&gt;&lt;font face=&quot;uEVrBLYoA_Is6GXnTwKO&quot;&gt;Keluar&lt;/font&gt;&lt;/div&gt;" style="shape=parallelogram;perimeter=parallelogramPerimeter;whiteSpace=wrap;html=1;fixedSize=1;strokeWidth=2;labelBackgroundColor=none;" vertex="1" parent="1">
          <mxGeometry x="-480" y="530" width="120" height="60" as="geometry" />
        </mxCell>
      </root>
    </mxGraphModel>
  </diagram>
</mxfile>
